<svg width="90" height="85" viewBox="0 0 90 85" fill="none" xmlns="http://www.w3.org/2000/svg">
<rect width="89.9206" height="84.925" rx="42.4625" fill="#6C6C6C"/>
<path d="M44.9605 11.6565C40.9227 11.6565 37.0502 13.2793 34.1951 16.1679C31.3399 19.0566 29.7359 22.9744 29.7359 27.0596C29.7359 31.1447 31.3399 35.0625 34.1951 37.9512C37.0502 40.8398 40.9227 42.4626 44.9605 42.4626C48.9984 42.4626 52.8708 40.8398 55.726 37.9512C58.5812 35.0625 60.1852 31.1447 60.1852 27.0596C60.1852 22.9744 58.5812 19.0566 55.726 16.1679C52.8708 13.2793 48.9984 11.6565 44.9605 11.6565ZM25.964 46.3134C24.9614 46.3088 23.9679 46.5047 23.0403 46.8897C22.1128 47.2747 21.2696 47.8412 20.5591 48.5568C19.8486 49.2725 19.2848 50.123 18.9001 51.0597C18.5154 51.9963 18.3174 53.0006 18.3174 54.0149C18.3174 60.5266 21.4879 65.4363 26.4435 68.6363C31.323 71.7824 37.9001 73.2688 44.9605 73.2688C52.021 73.2688 58.598 71.7824 63.4775 68.6363C68.4331 65.4402 71.6037 60.5227 71.6037 54.0149C71.6037 51.9724 70.8017 50.0135 69.3741 48.5691C67.9465 47.1248 66.0103 46.3134 63.9914 46.3134H25.964Z" fill="white"/>
</svg>
