<svg width="10" height="15" viewBox="0 0 10 15" fill="none" xmlns="http://www.w3.org/2000/svg">
<path d="M4.96923 6.66462C4.49854 6.66462 4.04714 6.47984 3.71431 6.15093C3.38148 5.82202 3.19451 5.37592 3.19451 4.91077C3.19451 4.44562 3.38148 3.99952 3.71431 3.67061C4.04714 3.3417 4.49854 3.15692 4.96923 3.15692C5.43992 3.15692 5.89132 3.3417 6.22415 3.67061C6.55698 3.99952 6.74396 4.44562 6.74396 4.91077C6.74396 5.14109 6.69805 5.36915 6.60886 5.58194C6.51967 5.79472 6.38895 5.98807 6.22415 6.15093C6.05935 6.31379 5.86371 6.44297 5.64839 6.53111C5.43307 6.61925 5.20229 6.66462 4.96923 6.66462ZM4.96923 0C3.65131 0 2.38737 0.517383 1.45545 1.43833C0.523542 2.35928 0 3.60835 0 4.91077C0 8.59385 4.96923 14.0308 4.96923 14.0308C4.96923 14.0308 9.93846 8.59385 9.93846 4.91077C9.93846 3.60835 9.41492 2.35928 8.48301 1.43833C7.5511 0.517383 6.28715 0 4.96923 0Z" fill="#F24822"/>
</svg>
