<svg width="21" height="21" viewBox="0 0 21 21" fill="none" xmlns="http://www.w3.org/2000/svg">
<path d="M14.6906 4.3786L16.3383 7.56325L15.9552 8.21718L13.8234 5.85876L12.7966 7.61129L13.4584 8.7307L13.171 9.22114L11.8913 8.03214L10.2284 7.49707L10.5157 7.00663L11.8159 7.03627L12.8427 5.28375L9.74293 4.57748L10.1261 3.92356L13.7097 3.80391L14.7532 2.02295C14.8294 1.89287 14.9541 1.7984 15.1 1.76031C15.2459 1.72222 15.4009 1.74364 15.531 1.81985C15.661 1.89605 15.7555 2.02081 15.7936 2.16668C15.8317 2.31254 15.8103 2.46756 15.7341 2.59764L14.6906 4.3786Z" fill="#919191"/>
<path d="M14.7 11.0644L19.152 3.24576L20.9685 4.31243L15.477 13.9658L8.6415 9.96576L3.633 18.7658H21V20.8991H0V1.6991H2.1V17.2084L7.875 7.03243L14.7 11.0644Z" fill="#919191"/>
</svg>
