<svg width="17" height="17" viewBox="0 0 17 17" fill="none" xmlns="http://www.w3.org/2000/svg">
<path d="M13.2361 0C12.6606 0.00256641 12.1462 0.178242 11.7604 0.564047L2.0613 10.2632C2.3163 10.233 2.57441 10.2421 2.82665 10.2902C3.31322 10.3826 3.76241 10.6058 4.16203 10.9129C5.11712 10.0653 9.15017 6.70437 9.15017 6.70437C7.72476 8.34746 6.04746 9.86463 4.91258 11.653C4.93343 11.6788 4.95459 11.7043 4.97498 11.7305C5.53151 12.4461 5.9126 13.322 6.02696 14.1761C6.06054 14.4269 6.07038 14.678 6.05298 14.9224L12.4184 8.55703L12.1462 8.39366C12.1293 8.40122 12.1124 8.40878 12.0937 8.41641L10.5027 9.21189L12.0937 7.62093C12.0937 7.62409 12.0944 7.62725 12.0946 7.63042L12.0971 7.6262L13.6271 8.54427C13.6719 8.33692 13.7605 8.14303 13.9022 7.98001C14.0661 7.79122 14.2963 7.66086 14.5702 7.60243L13.6518 6.07166L14.1944 5.74604L14.5825 6.39292L16.0859 4.88957C16.8254 4.15005 17.0139 3.43666 16.904 2.76648C16.8467 2.41696 16.6992 2.0745 16.4851 1.75584L13.9231 4.31786L16.1563 1.34023C16.028 1.2013 15.8899 1.07171 15.7431 0.952453C15.4293 0.696938 15.0716 0.482414 14.6992 0.321891C14.7056 0.328113 14.7122 0.334195 14.7185 0.340418L12.7298 1.53369L13.4916 0.010125C13.4451 0.00634144 13.3985 0.00361025 13.3519 0.0019336C13.3133 0.000561227 13.2746 -2.48386e-05 13.236 0.000175785L13.2361 0ZM14.7686 8.20406C14.5797 8.22516 14.4629 8.29934 14.3799 8.39496C14.3063 8.47969 14.2551 8.59852 14.2348 8.74202C14.3983 8.7088 14.5143 8.64879 14.5944 8.56877C14.6752 8.48791 14.7357 8.37032 14.7686 8.20403V8.20406ZM2.33763 10.8753C1.79985 10.873 1.23362 11.0967 0.638107 11.6867C0.117092 12.2144 -0.0590411 12.901 0.0168261 13.6338C0.0931152 14.3716 0.438701 15.142 0.945795 15.7413C1.02549 15.8355 1.10945 15.9248 1.19628 16.0096C1.32931 15.5719 2.00361 14.8374 2.3885 14.2615C2.10883 15.0115 1.91424 15.7737 1.94483 16.5681C2.21926 16.7165 2.50853 16.8174 2.80317 16.8582C3.48766 16.9528 4.21715 16.7504 4.9579 16.0172C5.35861 15.6092 5.49603 14.9791 5.39981 14.26C5.30278 13.5354 4.96299 12.7457 4.47548 12.1189C3.98797 11.4921 3.35948 11.0355 2.70846 10.9117C2.58624 10.8882 2.46212 10.876 2.33767 10.8753L2.33763 10.8753ZM2.049 11.5714C2.4023 11.5551 2.7795 11.6299 3.14792 11.7894C3.51633 11.9489 3.86486 12.1882 4.16329 12.4867C4.65007 12.9734 4.97183 13.5854 5.05779 14.1878C5.14375 14.7903 4.98687 15.3339 4.62166 15.6991C4.42717 15.8928 4.18026 16.0295 3.89712 16.1004C3.61399 16.1712 3.30102 16.1746 2.97874 16.1102C3.38469 16.1033 3.74439 15.9601 4.00369 15.7021C4.32013 15.3856 4.46264 14.9211 4.39988 14.4108C4.33711 13.9005 4.07421 13.3862 3.669 12.981C3.26378 12.5758 2.74944 12.3128 2.23912 12.25C1.7288 12.1873 1.26431 12.3298 0.947834 12.6462C0.689741 12.9054 0.546372 13.265 0.539318 13.6709C0.475029 13.3487 0.478446 13.0358 0.549345 12.7527C0.620244 12.4696 0.757024 12.2228 0.950717 12.0284C1.22823 11.7509 1.61101 11.5916 2.04889 11.5714H2.049Z" fill="black"/>
</svg>
