<svg width="40" height="42" viewBox="0 0 40 42" fill="none" xmlns="http://www.w3.org/2000/svg">
<path d="M16.0223 41.4681C10.5056 36.5349 6.45637 32.0134 3.87474 27.9034C1.29311 23.7935 0.00153031 19.8233 0 15.9929C0 11.2931 1.61065 7.45351 4.83194 4.47395C8.05324 1.49132 11.7834 0 16.0223 0C21.4993 0 25.6128 1.93748 28.3627 5.81244C31.1127 9.68741 32.3407 14.2389 32.0469 19.467L37.4849 13.7881L39.0641 15.3731L30.8992 23.7912L22.7319 15.3731L24.3112 13.7881L29.7515 19.467C30.134 14.2189 29.0031 10.046 26.3588 6.94821C23.7159 3.85192 20.2704 2.30378 16.0223 2.30378C12.1598 2.30378 8.90639 3.64919 6.26202 6.34001C3.61765 9.03083 2.29546 12.2976 2.29546 16.1403C2.29546 19.3856 3.38733 22.7836 5.57108 26.3345C7.75483 29.8854 11.2248 33.8994 15.981 38.3764L18.6782 35.7178C19.6224 34.784 20.3607 34.0353 20.8933 33.4717C20.6132 33.0785 20.3868 32.6561 20.2138 32.2046C20.0409 31.753 19.9537 31.2669 19.9521 30.7463C19.9521 29.4592 20.3967 28.3696 21.2858 27.4772C22.1749 26.5849 23.2614 26.1395 24.5454 26.141C25.8293 26.1426 26.9074 26.588 27.7797 27.4772C28.6519 28.3665 29.0888 29.4569 29.0904 30.7486C29.0904 32.0341 28.6466 33.1161 27.759 33.9946C26.8714 34.8731 25.7849 35.3116 24.4995 35.3101C24.1628 35.3101 23.8491 35.2832 23.5583 35.2294C23.2645 35.1772 22.9691 35.0828 22.6723 34.9461C21.6806 35.9797 20.6217 37.0402 19.4953 38.1276C18.369 39.215 17.2121 40.3285 16.0246 41.4681" fill="black"/>
</svg>
